<?xml version="1.0" encoding="utf-8"?>
<!-- Generator: Adobe Illustrator 21.0.2, SVG Export Plug-In . SVG Version: 6.00 Build 0)  -->
<svg version="1.1" id="Layer_1" xmlns="http://www.w3.org/2000/svg" xmlns:xlink="http://www.w3.org/1999/xlink" x="0px" y="0px"
	 viewBox="0 0 142.1 36.9" style="enable-background:new 0 0 142.1 36.9;" xml:space="preserve">
<style type="text/css">
	.st0{fill:#CF0A2C;}
	.st1{fill:#FFFFFF;}
</style>
<g>
	<path d="M19.7,34.1h1.7v-7.6h-1.7v-2.4h4.9v2.1h0.1c0.8-1.6,2.4-2.5,4.2-2.5c3.3,0,4.4,1.7,4.4,4.9v5.5H35v2.4h-6.8v-2.4h1.6v-5.4
		c0-1.3-0.7-2.5-2.2-2.5c-1.9,0-2.7,1.7-2.7,3.3v4.5h1.6v2.4h-6.8V34.1z"/>
	<path d="M37.4,34h2.2V21.7h-2.2v-2.5h9.5c1.7,0,8.9,0.3,8.9,8.6c0,5.8-3.7,8.7-9.3,8.7h-9V34z M43.2,34h2.9c3.8,0,5.7-2.4,5.7-6.1
		c0-3.7-1.8-6.1-5.7-6.1h-2.9V34z"/>
	<path d="M60.5,31.3c0,2,1.1,3.2,3.1,3.2c1.2,0,2.1-0.5,2.4-1.8h3.3c-0.6,3-3,4.2-5.9,4.2c-4.3,0-6.7-2.6-6.7-6.7
		c0-3.9,2.7-6.4,6.6-6.4c3,0,5.4,1.7,5.9,4.8c0.2,1,0.2,1.9,0.2,2.8H60.5z M66,29.1c0-1.8-0.9-2.9-2.7-2.9c-1.8,0-2.8,1.3-2.8,2.9
		H66z"/>
	<path d="M71.1,34.1h1.7v-7.6h-1.7v-2.4H76v2.1h0.1c0.8-1.6,2.4-2.5,4.2-2.5c1.9,0,3.2,0.6,4.1,2.3c0.8-1.6,2.3-2.3,4-2.3
		c2.7,0,4.6,1.1,4.7,4v6.4h1.7v2.4H88v-2.4h1.6v-5.4c0-1.4-0.5-2.5-2.1-2.5c-1.9,0-2.7,1.5-2.7,3.2v4.7h1.6v2.4h-6.7v-2.4h1.6v-5.4
		c0-1.3-0.7-2.5-2.2-2.5c-1.9,0-2.7,1.7-2.7,3.3v4.5h1.6v2.4h-6.8V34.1z"/>
	<path d="M104.2,34.7L104.2,34.7c-1.1,1.7-2.3,2.2-4.2,2.2c-2.3,0-4.3-1.3-4.3-4c0-4.1,4.1-4.2,7.2-4.2h1.2v-1
		c0-1.5-1.1-1.9-2.4-1.9c-1.4,0-2.2,0.6-2.3,2h-3.3c0.2-3.6,3.1-4.1,6-4.1c4,0,5.3,1.7,5.3,5.4v5h1.6v2.4h-4.9V34.7z M102.5,30.8
		c-1.8,0-3.4,0.3-3.4,2c0,1.2,0.8,1.7,1.9,1.7c2.1,0,3.3-1.5,3.2-3.7H102.5z"/>
	<path d="M111.1,34.1h1.7v-7.6h-1.7v-2.4h4.9v2.1h0.1c0.8-1.6,2.4-2.5,4.2-2.5c3.3,0,4.4,1.7,4.4,4.9v5.5h1.7v2.4h-6.8v-2.4h1.6
		v-5.4c0-1.3-0.7-2.5-2.2-2.5c-1.9,0-2.7,1.7-2.7,3.3v4.5h1.6v2.4h-6.8V34.1z"/>
	<path d="M140.4,34.1h1.7v2.4h-4.9v-2.1h-0.1c-1.1,1.7-2.2,2.4-4.4,2.4c-3.6,0-5.4-3-5.4-6.4c0-4.6,2.3-6.8,5.6-6.8
		c2.1,0,3.3,1,3.8,2.2h0.1v-4.7h-1.7v-2.4h5.2V34.1z M137.1,30.1c0-2-0.9-3.9-3.1-3.9c-2.3,0-2.9,2-2.9,4.1c0,2.7,1.1,4.1,2.6,4.1
		C136.4,34.4,137.1,32.7,137.1,30.1z"/>
</g>
<g>
	<path class="st0" d="M9.3,18.9c-2.9,0-5.4,1.3-7,3.4c0.1,0,0.2,0.1,0.3,0.1L5.9,24c0.9-0.8,2.1-1.3,3.3-1.3c2.8,0,5.1,2.3,5.1,5.1
		S12.1,33,9.3,33c-1.3,0-2.4-0.5-3.3-1.3l-3.4,1.6c-0.1,0.1-0.2,0.1-0.3,0.1c1.6,2.1,4.2,3.4,7,3.4c5,0,9-4,9-9
		C18.3,22.9,14.2,18.9,9.3,18.9z"/>
</g>
<path class="st0" d="M1.7,24.2c-0.9-0.5-1.7,0-1.7,1.1v5.2c0,1,0.8,1.5,1.7,1.1l5.9-2.8c0.9-0.5,0.9-1.2,0-1.7L1.7,24.2z"/>
<path d="M41.4,14.4H3.9c-2.1,0-3.8-1.7-3.8-3.8V3.8C0.1,1.7,1.8,0,3.9,0h37.5c2.1,0,3.8,1.7,3.8,3.8v6.8
	C45.2,12.7,43.5,14.4,41.4,14.4z"/>
<g>
	<path class="st1" d="M5.5,7.2c0-2.4,1.5-4.1,4.1-4.1c2.6,0,4.1,1.7,4.1,4.1c0,2.4-1.5,4.1-4.1,4.1C7,11.3,5.5,9.6,5.5,7.2z M12,7.2
		c0-1.7-0.7-2.9-2.4-2.9C8,4.3,7.3,5.5,7.3,7.2s0.7,2.9,2.4,2.9C11.3,10.1,12,8.9,12,7.2z"/>
	<path class="st1" d="M14.5,10h1.1V4.4h-1.1V3.3h4.2c1.2,0,2.8,0.2,2.8,2.4c0,2-1.2,2.5-2.8,2.5h-1.5V10h1.3v1.1h-4V10z M17.2,7.1
		h0.9c0.9,0,1.7-0.2,1.7-1.3c0-1.4-0.9-1.3-1.8-1.3h-0.8V7.1z"/>
	<path class="st1" d="M22.4,10h1V4.4h-1V3.3h7.1v2.3h-1.4V4.4h-3.1v2.1h1.2V5.5h1.3v3.2h-1.3V7.6h-1.2V10h3.1V8.6h1.4v2.6h-7.1V10z"
		/>
	<path class="st1" d="M31,10h1V4.4h-1V3.3h3.3l3,5.8h0V4.4h-1V3.3h3.5v1.1h-1v6.7h-2.2l-3.2-6h0V10h1v1.1H31V10z"/>
</g>
</svg>
